<?xml version="1.0" encoding="utf-8"?>
<!-- Generator: Adobe Illustrator 24.2.1, SVG Export Plug-In . SVG Version: 6.00 Build 0)  -->
<svg version="1.1" id="Ebene_1" xmlns="http://www.w3.org/2000/svg" xmlns:xlink="http://www.w3.org/1999/xlink" x="0px" y="0px"
	 viewBox="0 0 531.73 140.23" style="enable-background:new 0 0 531.73 140.23;" xml:space="preserve">
<style type="text/css">
	.st0{fill:#E8AD00;}
	.st1{font-family:'ArialMT';}
	.st2{font-size:89.7559px;}
	.st3{display:none;}
	.st4{fill-rule:evenodd;clip-rule:evenodd;fill:#E6AD1C;}
	.st5{fill-rule:evenodd;clip-rule:evenodd;fill:#5263AB;}
</style>
<text transform="matrix(1 0 0 1 265.8175 101.5816)"><tspan x="0" y="0" class="st0 st1 st2">F</tspan><tspan x="54.83" y="0" class="st0 st1 st2">orum</tspan></text>
<g class="st3">
</g>
<g id="Page-1">
	<g id="Logo-_x28_Color_x29_">
		<path class="st4" d="M90.53,139.71c-1.41-0.58-2.05-0.97-3.31-2.02c-2.72-2.26-5.4-7.51-6.42-12.53
			c-0.61-3.04,0.09-2.71-6.07-2.87c-10.93-0.29-18.21-1.63-23.95-4.4c-4.48-2.17-8.44-6.31-11.09-11.61
			c-3.37-6.73-5.99-17.64-7.65-31.8c-0.59-5-0.63-5.27-0.87-5.27c-0.11,0-0.3,0.41-0.43,0.91c-0.74,2.88-3.24,8.4-9.04,19.96
			c-6.72,13.4-9.11,19.3-9.78,24.17c-0.08,0.56-0.21,1.06-0.29,1.11c-0.19,0.12-11.43-1.06-11.58-1.22
			c-0.22-0.22,0.4-2.89,1.14-4.89c1.56-4.21,5.56-11.9,10.34-19.91c1.06-1.78,3.9-6.47,6.3-10.44c5.24-8.65,8.82-14.84,10.43-18.06
			l1.09-2.18c0.06-0.13,0.09-0.27,0.08-0.42l-0.2-1.99c-0.82-8.17-2.33-13.11-4.66-15.27c-1.32-1.22-2.8-2-4.98-2.6
			c-1.4-0.39-2.25-0.46-5.74-0.47c-2.65-0.01-4.53,0.09-5.35,0.27c-0.8,0.18-1.34,0.21-1.47,0.08C6.76,37.98,7.66,29.79,8,29.44
			c0.79-0.81,8.34-1.62,12.41-1.33c3.01,0.22,4.82,0.65,6.97,1.67c3.11,1.47,4.8,3.44,6.35,7.43c1.73,4.43,2.68,9.24,4.01,20.25
			c2.73,22.72,6.95,36.89,13.65,45.83c2.54,3.39,4.51,5.45,7.11,7.43c3.15,2.4,4.65,3.3,6.47,3.87c3.11,0.98,4.9,1.15,13.24,1.29
			l7.26,0.12c0.4,0.01,0.72,0.32,0.75,0.71l0.1,1.57c0.45,7.2,3.13,13.73,6.28,15.25c0.92,0.44,1.12,0.45,19.1,0.44
			c20.67-0.01,19.07,0.14,20.89-1.88c2.31-2.57,3.98-7.58,4.5-13.51c0.12-1.41,0.3-2.64,0.39-2.73s11.88-0.14,26.2-0.11l25.28,0.05
			c0.42,0,0.76,0.34,0.76,0.76v2.36v2.37c0,0.42-0.34,0.76-0.76,0.76l-22.49,0.1l-22.62,0.1c-0.36,0-0.67,0.26-0.74,0.62l-0.07,0.35
			c-1.67,8.77-5.37,14.76-10.19,16.51l-1.25,0.45c-0.08,0.03-0.17,0.05-0.26,0.05l-19.71-0.01l-19.7-0.01c-0.1,0-0.2-0.02-0.29-0.06
			L90.53,139.71L90.53,139.71z"/>
		<path class="st4" d="M205.21,121.79c-0.56-0.14-0.76-1.48-0.45-2.96l0.42-2c0.08-0.38,3.26-0.69,7.15-0.69h156.19h156.05
			c3.95,0,7.15,0.32,7.15,0.71v2.2v2.2c0,0.39-3.19,0.71-7.13,0.71L368.98,122C236.53,122.04,206.04,122,205.21,121.79
			L205.21,121.79z"/>
		<path class="st4" d="M187.96,41.19c-6.35-0.67-14.12-4.02-29.14-12.58c-19.08-10.87-26.03-14.1-35.19-16.36
			c-5.05-1.24-7.31-1.47-14.85-1.45c-10.9,0.02-18.38,1.09-25.95,3.7c-7.17,2.48-12.37,5.47-21.33,12.26
			c-10.28,7.79-15.9,11.48-15.9,10.42c0-0.5,1.17-4.41,1.83-6.13C53.22,16.05,68.84,5.58,91.34,1.63c5.01-0.88,8.63-1.27,14.26-1.52
			c17.22-0.79,29.15,2.57,45.79,12.91c1.66,1.03,6.26,4,10.22,6.6c10.56,6.93,15.91,10.04,21.57,12.54
			c5.18,2.29,10.22,3.86,15.56,4.85c1.77,0.33,2.58,0.57,2.58,0.77c0,0.46-2.58,1.91-4.61,2.59c-1.75,0.59-4.9,1.1-6.37,1.04
			C190,41.39,188.92,41.29,187.96,41.19L187.96,41.19z"/>
		<path id="Snap_x21_" class="st5" d="M193.16,123.2c-0.07-0.11-0.03-1.54,0.09-3.18c0.55-7.4,0.68-11.39,0.79-24.28
			c0.12-13.35-0.05-21.35-0.59-28.41c-0.29-3.81-0.98-9.9-1.4-12.35c-0.25-1.44-0.28-2.08-0.11-2.25c0.23-0.23,8.4-1.47,8.65-1.32
			c0.07,0.04,0.25,0.83,0.39,1.75c0.38,2.51,0.47,2.86,0.69,2.86c0.11,0,0.84-0.53,1.62-1.17c3.28-2.71,7.14-3.94,12.99-4.14
			c3.69-0.13,5.9,0.16,8.71,1.14c5.34,1.87,9.97,7.04,12.17,13.6c0.94,2.81,1.32,5.33,1.33,8.87c0.02,5.95-1.08,10.58-3.62,15.28
			c-3.28,6.07-7.77,9.82-13.55,11.34c-1.71,0.45-2.81,0.58-5.64,0.67c-5.5,0.18-9.48-0.57-11.78-2.2c-0.59-0.42-1.2-0.76-1.36-0.76
			c-0.25,0-0.28,1.25-0.16,7.8c0.07,4.29,0.16,9.84,0.19,12.32l0.05,3.76c0.01,0.42-0.33,0.76-0.75,0.77l-3.91,0.05
			C195.15,123.38,193.24,123.32,193.16,123.2L193.16,123.2z M217.55,94.9c1.68-0.47,4.07-1.66,5.32-2.66
			c1.45-1.15,2.89-3.11,4.07-5.52c4.32-8.83,2.8-20.35-3.43-25.9c-2.4-2.14-5.3-3.12-9.21-3.11c-5.04,0.01-8.37,1.16-11.16,3.85
			l-1.25,1.21c-0.16,0.15-0.24,0.37-0.23,0.58l0.19,3.85c0.11,2.31,0.32,8.75,0.45,14.31c0.13,5.56,0.28,10.23,0.32,10.38
			c0.28,0.9,4.01,2.67,6.7,3.18C211.38,95.47,215.85,95.37,217.55,94.9L217.55,94.9z M71.21,101.86c-4.47-0.29-11.27-1.49-11.88-2.1
			c-0.11-0.11,0.15-1.73,0.64-3.94l0.7-3.14c0.08-0.36,0.4-0.61,0.76-0.59h0c0.35,0.01,1.5,0.28,2.56,0.6
			c6.48,1.95,13.48,2.5,19.59,1.53c6.55-1.04,10.04-3.84,10.38-8.34c0.32-4.27-1.92-7.74-6.92-10.69c-1.29-0.76-4.91-2.58-8.05-4.04
			c-6.28-2.92-8.07-3.85-10.79-5.62c-2.15-1.4-4.98-4.18-5.99-5.89c-1.58-2.68-2.33-6.02-2.12-9.54
			c0.48-8.14,5.67-13.67,14.78-15.72c2.19-0.49,11.39-0.68,15.77-0.33c3.29,0.27,6.95,0.91,7.32,1.27c0.14,0.14,0.01,1.48-0.36,3.87
			c-0.31,2.02-0.57,3.77-0.57,3.89c0,0.32-0.79,0.28-2.04-0.11c-5.47-1.66-15.06-2.35-19.59-1.41c-3.61,0.75-5.64,2.09-6.83,4.49
			c-0.65,1.32-0.71,1.61-0.71,3.49c0,1.88,0.06,2.17,0.7,3.48c1.45,2.95,4.11,4.69,13.4,8.78c11.36,5.01,16.49,9.04,18.83,14.8
			c1.5,3.69,1.6,9.22,0.23,13.28c-1.82,5.42-6.27,9.04-13.36,10.87C83.82,101.78,76.92,102.23,71.21,101.86L71.21,101.86z
			 M160,101.35c-3.15-0.62-5.44-1.81-7.56-3.89c-2.48-2.45-3.42-4.95-3.39-9.04c0.03-3.83,1.02-6.76,3.19-9.43
			c4.02-4.94,11.03-7.29,23.37-7.86c2.08-0.1,3.89-0.25,4.04-0.33c0.38-0.23,0.33-4.45-0.08-6.16c-0.96-4.07-3.66-5.84-9.87-6.46
			c-3.94-0.4-11.7,0.26-16.5,1.39c-2.12,0.5-2.01,0.59-1.83-1.44c0.09-0.98,0.27-2.55,0.41-3.5l0.18-1.22
			c0.04-0.3,0.27-0.55,0.57-0.63l1.01-0.26c2.25-0.57,5.94-1.19,8.61-1.46c3.85-0.38,10.65-0.33,12.92,0.09
			c5.82,1.09,9.54,3.4,11.37,7.05c1.71,3.42,2.01,6.15,1.68,15.41c-0.42,11.93-0.28,17.51,0.62,23.63c0.23,1.54,0.34,2.87,0.25,2.96
			c-0.09,0.09-1.87,0.23-3.96,0.3l-3.25,0.12c-0.33,0.01-0.62-0.18-0.74-0.49l-0.03-0.09c-0.13-0.33-0.29-1.32-0.36-2.19
			c-0.07-0.88-0.21-1.64-0.3-1.7c-0.09-0.06-0.81,0.38-1.59,0.97c-1.45,1.1-4.15,2.5-5.97,3.1
			C169.29,101.38,162.96,101.93,160,101.35L160,101.35z M173.13,93.81c2.28-0.58,5.16-1.9,6.26-2.88l0.4-0.35
			c0.17-0.15,0.26-0.36,0.26-0.58l-0.12-6.32l-0.11-5.92c-0.01-0.42-0.35-0.75-0.77-0.75l-2.82,0.02
			c-11.63,0.1-17.75,3.13-18.68,9.26c-0.38,2.47,0.08,4.23,1.48,5.75c0.95,1.03,2.34,1.73,4.39,2.2
			C165.5,94.72,170.42,94.5,173.13,93.81L173.13,93.81z M104.91,100.17c-0.07-0.11,0.02-3.33,0.19-7.16
			c0.86-18.83,0.63-26.37-1.1-36.74c-0.4-2.38-0.49-3.37-0.32-3.54c0.28-0.28,8.46-1.47,8.66-1.26c0.08,0.08,0.3,1.16,0.5,2.4
			c0.51,3.22,0.56,3.44,0.79,3.44c0.11,0,0.82-0.51,1.58-1.13c2.63-2.17,6.16-4.01,9.18-4.79c3.27-0.85,8.57-0.8,12.15,0.11
			c4.14,1.05,7.38,3.38,8.83,6.33c0.41,0.84,0.97,2.36,1.24,3.36c0.48,1.83,0.48,1.84,0.48,20.45V99.5c0,0.42-0.33,0.75-0.75,0.76
			l-3.65,0.05c-2.42,0.03-4.47-0.02-4.57-0.11c-0.09-0.09-0.03-2.06,0.13-4.37c0.83-11.41,0.96-27.28,0.25-30.08
			c-0.7-2.74-2.43-5.15-4.44-6.19c-3.14-1.63-7.65-1.95-11.95-0.86c-1.82,0.46-5.36,2.26-6.89,3.5l-1.01,0.82
			c-0.18,0.14-0.28,0.36-0.28,0.59v18.14V99.5c0,0.42-0.33,0.75-0.75,0.76l-3.7,0.05C106.9,100.34,104.98,100.29,104.91,100.17
			L104.91,100.17z M239.86,99.96c-1.99-0.9-2.83-2.81-2.65-5.98c0.24-4.19,3.28-7.3,7.39-7.56c2.07-0.13,3.24,0.22,4.33,1.32
			c1.14,1.14,1.44,2.22,1.33,4.79c-0.07,1.67-0.19,2.17-0.77,3.36c-0.89,1.81-2.55,3.4-4.21,4.02
			C243.68,100.5,241.11,100.53,239.86,99.96L239.86,99.96z M244.43,73.09c-0.24-0.42-0.38-23.58-0.15-26.54
			c0.47-6.14,1.45-9.42,3.44-11.44c1.72-1.75,3.52-2.15,5.4-1.2c1.69,0.86,2.36,2.48,2.36,5.75c0,5.82-2.92,18.57-7.25,31.65
			l-0.44,1.33c-0.1,0.3-0.37,0.51-0.69,0.52l-1.02,0.04C245.22,73.23,244.48,73.18,244.43,73.09L244.43,73.09z"/>
	</g>
</g>
</svg>
